<svg width="128" height="128" viewBox="0 0 128 128" fill="none" xmlns="http://www.w3.org/2000/svg">
<path d="M0.102605 34.8974C0.102605 44.4149 2.61642 51.374 4.69418 57.591C6.97715 64.4733 9.56793 69.4879 11.4918 72.7627C14.2621 71.2532 17.1864 69.8228 19.9567 68.3133C13.6721 60.4332 10.5683 51.9368 9.20881 47.2804C7.41322 41.1145 7.18236 37.2512 7.18236 35.2045C7.18236 20.3142 11.6713 13.5854 21.9832 13.5854H57.2281V48.9178L0 78.6984V94.3818L63.9743 128V113.596L29.4733 96.7867C21.9575 93.1025 15.8269 90.5441 8.41362 86.7064V86.0668C15.8269 82.2291 21.9575 79.4915 29.4733 75.9864L64 59.1773V57.4887V0H21.2906C9.64488 0 0.102605 8.80112 0.102605 34.8974Z" fill="#CD7738"/>
<path d="M127.923 34.8975C127.923 44.4149 125.408 51.374 123.33 57.591C121.046 64.4733 118.454 69.4879 116.529 72.7627C113.758 71.2532 110.884 69.8581 108.112 68.3486C114.399 60.4685 117.453 51.9368 118.813 47.2804C120.609 41.1145 120.84 37.2512 120.84 35.2045C120.84 20.3142 116.35 13.5854 106.034 13.5854H70.7747V48.9178L128 78.6984V94.3818L64 128V113.596L98.5405 96.7867C106.059 93.1025 112.192 90.5441 119.609 86.7064V86.0668C112.192 82.2291 106.059 79.4915 98.5405 75.9864L64 59.1773V57.4887V0H106.701C118.351 0 127.923 8.80112 127.923 34.8975Z" fill="#F58C40"/>
</svg>
